<?xml version="1.0" standalone="no"?><!DOCTYPE svg PUBLIC "-//W3C//DTD SVG 1.1//EN" "http://www.w3.org/Graphics/SVG/1.1/DTD/svg11.dtd"><svg t="1610699629045" class="icon" viewBox="0 0 1024 1024" version="1.1" xmlns="http://www.w3.org/2000/svg" p-id="2535" xmlns:xlink="http://www.w3.org/1999/xlink" width="200" height="200"><defs><style type="text/css"></style></defs><path d="M846.921143 246.034286l-266.971429-155.428572c-42.057143-23.771429-93.257143-23.771429-135.314285 0l-266.971429 153.6c-42.057143 25.6-67.657143 69.485714-67.657143 118.857143v307.2c0 47.542857 25.6 93.257143 67.657143 117.028572l266.971429 153.6c42.057143 23.771429 93.257143 23.771429 135.314285 0l266.971429-153.6c42.057143-23.771429 67.657143-69.485714 67.657143-117.028572v-307.2c0-49.371429-25.6-93.257143-67.657143-117.028571z m16.457143 424.228571c0 31.085714-16.457143 58.514286-42.057143 73.142857l-266.971429 155.428572c-25.6 14.628571-58.514286 14.628571-85.942857 0l-266.971428-153.6c-25.6-14.628571-42.057143-43.885714-42.057143-73.142857v-309.028572c0-31.085714 16.457143-58.514286 42.057143-73.142857l266.971428-153.6c25.6-14.628571 58.514286-14.628571 85.942857 0l266.971429 153.6c25.6 14.628571 42.057143 43.885714 42.057143 73.142857v307.2z" fill="#2B83E8" p-id="2536"></path><path d="M219.721143 310.034286c-20.114286 10.971429-32.914286 32.914286-32.914286 56.685714v21.942857h27.428572v-27.428571c0-9.142857 5.485714-20.114286 14.628571-23.771429l23.771429-12.8-14.628572-25.6-18.285714 10.971429z m259.657143-149.942857l-18.285715 10.971428 14.628572 23.771429 23.771428-12.8c9.142857-5.485714 20.114286-5.485714 27.428572 0l23.771428 12.8 14.628572-23.771429-18.285714-10.971428c-21.942857-10.971429-47.542857-10.971429-67.657143 0z m-265.142857 512v-27.428572h-27.428572v21.942857c0 23.771429 12.8 45.714286 32.914286 56.685715l18.285714 10.971428 14.628572-23.771428-23.771429-12.8c-9.142857-5.485714-14.628571-16.457143-14.628571-25.6z m312.685714 179.2c-9.142857 5.485714-20.114286 5.485714-27.428572 0l-23.771428-12.8-14.628572 23.771428 18.285715 10.971429c20.114286 10.971429 45.714286 10.971429 65.828571 0l18.285714-10.971429-14.628571-23.771428-21.942857 12.8z m281.6-179.2c0 9.142857-5.485714 20.114286-14.628572 23.771428l-23.771428 12.8 16.457143 25.6 18.285714-10.971428c20.114286-10.971429 32.914286-32.914286 32.914286-56.685715v-21.942857h-27.428572v27.428572z m-3.657143-362.057143l-18.285714-10.971429-14.628572 23.771429 23.771429 12.8c9.142857 5.485714 14.628571 14.628571 14.628571 23.771428v27.428572h27.428572v-21.942857c0-21.942857-12.8-43.885714-32.914286-54.857143z" fill="#2B83E8" p-id="2537"></path><path d="M837.778286 666.605714v-299.885714c0-23.771429-12.8-45.714286-32.914286-56.685714l-259.657143-149.942857c-20.114286-10.971429-45.714286-10.971429-65.828571 0l-259.657143 149.942857c-20.114286 10.971429-32.914286 32.914286-32.914286 56.685714v298.057143c0 23.771429 12.8 45.714286 32.914286 56.685714l259.657143 149.942857c20.114286 10.971429 45.714286 10.971429 65.828571 0l259.657143-148.114285c20.114286-10.971429 32.914286-32.914286 32.914286-56.685715z" fill="#2B83E8" opacity=".1" p-id="2538"></path><path d="M648.850286 556.050286h16.457143c16.457143 0 16.457143 43.885714 0 43.885714h-100.571429c32.914286 12.8 65.828571 27.428571 96.914286 43.885714 14.628571 7.314286-5.485714 47.542857-20.114286 38.4-32.914286-18.285714-65.828571-32.914286-100.571429-47.542857-12.8-3.657143-3.657143-27.428571 7.314286-36.571428h-74.971428c10.971429 9.142857 20.114286 29.257143 9.142857 36.571428-32.914286 18.285714-69.485714 36.571429-104.228572 51.2-16.457143 7.314286-34.742857-34.742857-18.285714-40.228571 32.914286-12.8 65.828571-27.428571 96.914286-45.714286h-98.742857c-16.457143 0-16.457143-43.885714 0-43.885714h18.285714v-120.685715c0-34.742857 9.142857-43.885714 43.885714-43.885714h31.085714v-23.771428c0-18.285714 43.885714-18.285714 43.885715 0v23.771428h32.914285v-23.771428c0-16.457143 43.885714-16.457143 43.885715 0v23.771428h32.914285c34.742857 0 43.885714 9.142857 43.885715 43.885714v120.685715z m-228.571429-82.285715h31.085714v-38.4h-21.942857c-9.142857 0-9.142857 0-9.142857 9.142858v29.257142z m0 82.285715h31.085714v-40.228572h-31.085714v40.228572z m76.8-82.285715h32.914286v-38.4h-32.914286v38.4z m0 82.285715h32.914286v-40.228572h-32.914286v40.228572z m74.971429-120.685715v38.4h32.914285v-29.257142c0-9.142857 0-9.142857-9.142857-9.142858h-23.771428z m0 120.685715h32.914285v-40.228572h-32.914285v40.228572z" fill="#2B83E8" p-id="2539"></path></svg>